<svg xmlns="http://www.w3.org/2000/svg" viewBox="0 0 500 500"><g id="freepik--background-complete--inject-293"><path d="M289,131c-1.56-4.17-3.15-8.4-5.78-12s-6.46-6.53-10.88-7.07-9.31,1.84-10.75,6c-.63-9.49-2-19.22-6.72-27.46s-13.61-14.71-23.1-14.13c-8.95.55-16.62,7.2-20.87,15.09s-5.72,16.94-7.12,25.79c-3.39-4.16-10.56-2.85-14.1,1.19s-4.43,9.68-5.19,15H291.25Z" style="fill:#f5f5f5"></path><path d="M110.82,159.29a31.89,31.89,0,0,0-3.78-7.84,10.84,10.84,0,0,0-7.11-4.63c-2.89-.35-6.09,1.21-7,4-.41-6.2-1.29-12.57-4.4-17.95s-8.9-9.62-15.11-9.24c-5.85.35-10.86,4.7-13.64,9.86S56,144.53,55.09,150.32c-2.22-2.72-6.9-1.87-9.21.77s-2.91,6.33-3.4,9.81h69.83Z" style="fill:#ebebeb"></path><path d="M396.06,84.5c-1.5-4-3-8.09-5.57-11.56s-6.23-6.3-10.49-6.82S371,67.9,369.63,72c-.61-9.15-1.9-18.54-6.49-26.49S350,31.29,340.86,31.85c-8.63.52-16,6.93-20.12,14.54s-5.52,16.34-6.87,24.88c-3.27-4-10.18-2.75-13.59,1.15s-4.28,9.33-5,14.46h103Z" style="fill:#ebebeb"></path><path d="M177.56,93.7a32.67,32.67,0,0,0-3.85-8A11,11,0,0,0,166.47,81c-2.94-.36-6.2,1.23-7.16,4-.42-6.32-1.31-12.8-4.48-18.28s-9.06-9.8-15.38-9.41c-6,.36-11.06,4.79-13.89,10s-3.81,11.28-4.74,17.18c-2.26-2.77-7-1.9-9.39.79s-3,6.44-3.46,10h71.11Z" style="fill:#ebebeb"></path><path d="M436.21,147.34a32.67,32.67,0,0,0-3.85-8,11,11,0,0,0-7.24-4.71c-2.94-.36-6.2,1.23-7.16,4-.42-6.32-1.32-12.8-4.48-18.29s-9.06-9.79-15.38-9.4c-6,.36-11.07,4.79-13.9,10s-3.81,11.28-4.74,17.18c-2.26-2.77-7-1.9-9.39.79s-2.95,6.44-3.45,10h71.1Z" style="fill:#f5f5f5"></path><path d="M298.51,196.17a22.74,22.74,0,0,0-2.67-5.55,7.67,7.67,0,0,0-5-3.27,4.68,4.68,0,0,0-5,2.8c-.29-4.39-.91-8.9-3.11-12.71s-6.3-6.81-10.69-6.54c-4.14.26-7.69,3.33-9.66,7s-2.65,7.84-3.29,11.94c-1.57-1.92-4.89-1.32-6.53.55s-2.05,4.48-2.4,6.94h49.42Z" style="fill:#f5f5f5"></path><ellipse cx="147.1" cy="408.72" rx="49.68" ry="5.36" style="fill:#e0e0e0"></ellipse><ellipse cx="352.49" cy="408.81" rx="49.67" ry="5.36" style="fill:#e0e0e0"></ellipse><path d="M170.1,471.05c-.11.1-3.65-3.48-7.91-8s-7.63-8.26-7.53-8.36,3.64,3.48,7.91,8S170.2,471,170.1,471.05Z" style="fill:#e0e0e0"></path><path d="M173.59,468.15a4.71,4.71,0,0,1-.64-.94c-.38-.62-.9-1.53-1.51-2.68a71.91,71.91,0,0,1-6.77-19.11c-.25-1.28-.42-2.31-.51-3a4,4,0,0,1-.09-1.12,5.47,5.47,0,0,1,.29,1.09c.18.81.41,1.81.67,3a90.68,90.68,0,0,0,6.74,19l1.36,2.75A4.5,4.5,0,0,1,173.59,468.15Z" style="fill:#e0e0e0"></path><path d="M180.63,441.26c.08,0-.23,1.43-.64,3.73s-.88,5.5-1.18,9.05-.33,6.78-.3,9.11.1,3.79,0,3.8a4.64,4.64,0,0,1-.17-1c-.08-.65-.15-1.6-.22-2.77a70.44,70.44,0,0,1,1.49-18.25c.25-1.14.48-2.07.67-2.7A4,4,0,0,1,180.63,441.26Z" style="fill:#e0e0e0"></path><path d="M361.64,466.22c-.14,0,.95-5,2.43-11s2.79-10.89,2.93-10.86-.95,4.95-2.43,11S361.78,466.25,361.64,466.22Z" style="fill:#e0e0e0"></path><path d="M357.17,465.42a4.8,4.8,0,0,1-.11-1.13c-.05-.84-.11-1.86-.17-3.06a90.42,90.42,0,0,0-3.53-19.87l-.89-2.94a4.47,4.47,0,0,1-.28-1.09,4.56,4.56,0,0,1,.47,1c.28.68.64,1.66,1,2.9a71.53,71.53,0,0,1,3.54,20c0,1.3,0,2.35,0,3.08A4.33,4.33,0,0,1,357.17,465.42Z" style="fill:#e0e0e0"></path><path d="M337.78,445.5a4.18,4.18,0,0,1,.76.68c.48.45,1.13,1.14,1.91,2a69.88,69.88,0,0,1,10.3,15.13c.53,1.05.93,1.91,1.18,2.52a4.23,4.23,0,0,1,.35,1c-.07,0-.73-1.26-1.85-3.31s-2.76-4.83-4.76-7.78-4-5.48-5.5-7.28S337.72,445.55,337.78,445.5Z" style="fill:#e0e0e0"></path><path d="M257.62,416.67c-.13-.05,1.5-4.82,3.64-10.64s4-10.51,4.13-10.46-1.49,4.81-3.64,10.64S257.76,416.72,257.62,416.67Z" style="fill:#e0e0e0"></path><path d="M253.27,415.37a4.3,4.3,0,0,1,0-1.13c0-.84.1-1.86.17-3.07A91.06,91.06,0,0,0,252.18,391c-.22-1.18-.41-2.19-.56-3a5.67,5.67,0,0,1-.16-1.12,4.39,4.39,0,0,1,.36,1.07c.2.7.45,1.72.72,3a71.56,71.56,0,0,1,1.28,20.23c-.1,1.29-.22,2.34-.33,3.06A5.37,5.37,0,0,1,253.27,415.37Z" style="fill:#e0e0e0"></path><path d="M236.23,393.41s.27.24.69.75,1,1.27,1.67,2.22a70.53,70.53,0,0,1,4.79,7.82,69.68,69.68,0,0,1,3.74,8.38c.41,1.1.71,2,.89,2.63a3.86,3.86,0,0,1,.24,1c-.08,0-.58-1.34-1.47-3.5s-2.2-5.11-3.86-8.27-3.36-5.89-4.64-7.85S236.17,393.45,236.23,393.41Z" style="fill:#e0e0e0"></path><path d="M67.3,375.21c-.13,0,1.5-4.82,3.65-10.64s4-10.52,4.13-10.47-1.5,4.82-3.65,10.65S67.44,375.26,67.3,375.21Z" style="fill:#e0e0e0"></path><path d="M63,373.91a4.3,4.3,0,0,1,0-1.13c0-.84.1-1.86.17-3.07a93.76,93.76,0,0,0-.08-10.1,92.86,92.86,0,0,0-1.2-10c-.22-1.19-.4-2.19-.56-3a4.38,4.38,0,0,1-.15-1.12,5.27,5.27,0,0,1,.35,1.08c.2.7.45,1.72.72,3a70.2,70.2,0,0,1,1.36,10.07,72.62,72.62,0,0,1-.07,10.16c-.11,1.3-.23,2.35-.34,3.07A4.64,4.64,0,0,1,63,373.91Z" style="fill:#e0e0e0"></path><path d="M45.91,351.94a4,4,0,0,1,.69.76c.41.51,1,1.27,1.67,2.22a72,72,0,0,1,4.8,7.82,71.27,71.27,0,0,1,3.74,8.37c.4,1.11.7,2,.88,2.64a3.45,3.45,0,0,1,.24,1c-.07,0-.58-1.33-1.47-3.49s-2.2-5.11-3.86-8.27-3.35-5.9-4.64-7.85S45.85,352,45.91,351.94Z" style="fill:#e0e0e0"></path><path d="M456,376.33c-.13-.05,1.5-4.82,3.65-10.64s4-10.51,4.13-10.46-1.5,4.81-3.65,10.64S456.15,376.38,456,376.33Z" style="fill:#e0e0e0"></path><path d="M451.66,375a4.93,4.93,0,0,1,0-1.13c0-.84.1-1.86.17-3.07a91.06,91.06,0,0,0-1.28-20.14c-.22-1.18-.4-2.19-.55-3a4.27,4.27,0,0,1-.16-1.12,4.74,4.74,0,0,1,.35,1.07c.2.7.45,1.72.72,3a70.2,70.2,0,0,1,1.36,10.07,72.79,72.79,0,0,1-.07,10.17c-.11,1.29-.23,2.34-.34,3.06A4.64,4.64,0,0,1,451.66,375Z" style="fill:#e0e0e0"></path><path d="M434.62,353.06a4,4,0,0,1,.69.76c.41.51,1,1.27,1.67,2.22a72,72,0,0,1,4.8,7.82,70.59,70.59,0,0,1,3.74,8.38c.4,1.1.7,2,.88,2.63a3.45,3.45,0,0,1,.24,1c-.07,0-.58-1.33-1.47-3.49s-2.2-5.11-3.86-8.27-3.35-5.9-4.64-7.85S434.56,353.11,434.62,353.06Z" style="fill:#e0e0e0"></path></g><g id="freepik--Floor--inject-293"><path d="M474.32,374.4c0,.15-100.44.27-224.31.27s-224.33-.12-224.33-.27,100.42-.26,224.33-.26S474.32,374.26,474.32,374.4Z" style="fill:#263238"></path></g><g id="freepik--Plants--inject-293"><path d="M244.2,323.35a9.75,9.75,0,0,1,5.05,5.72,17.08,17.08,0,0,1,.67,7.75c-.57,5-3.43,10.11-6.5,14.13-4.24-3.7-5.21-10.15-5.5-13.45-.46-5.22,1.89-14.92,6.28-14.15" style="fill:#455a64"></path><path d="M248.34,359.25a8.33,8.33,0,0,1,2.69-7.91,11.06,11.06,0,0,1,8.14-2.54,4.66,4.66,0,0,1,3.58,1.61,3.54,3.54,0,0,1,.05,3.6,7.17,7.17,0,0,1-2.67,2.63c-3.67,2.3-7.64,3.85-11.79,2.61" style="fill:#455a64"></path><path d="M242.91,374.67a5.1,5.1,0,0,1,.15-1c.13-.73.31-1.67.51-2.8a29.16,29.16,0,0,1,2.89-8.92,17.73,17.73,0,0,1,6.4-6.8,12.08,12.08,0,0,1,2.61-1.16,6.28,6.28,0,0,1,.75-.19.78.78,0,0,1,.27,0,20.3,20.3,0,0,0-3.5,1.61,18.52,18.52,0,0,0-6.21,6.76,31.26,31.26,0,0,0-2.95,8.8c-.26,1.17-.47,2.11-.63,2.77A6,6,0,0,1,242.91,374.67Z" style="fill:#263238"></path><path d="M243.07,330.9a2.43,2.43,0,0,1,.05.46c0,.33,0,.76.08,1.29.06,1.13.12,2.76.19,4.77.13,4,.23,9.6.21,15.75s-.18,11.73-.35,15.76c-.08,2-.16,3.64-.23,4.76,0,.54-.07,1-.09,1.3a2.23,2.23,0,0,1-.05.45,1.59,1.59,0,0,1,0-.45c0-.34,0-.77,0-1.3,0-1.17.07-2.79.11-4.77.1-4,.21-9.6.24-15.75s0-11.71-.1-15.74c0-2-.06-3.6-.07-4.77,0-.54,0-1,0-1.3A2.44,2.44,0,0,1,243.07,330.9Z" style="fill:#263238"></path><path d="M241,362.31a19.42,19.42,0,0,0-10.62-14.25c-1.41-.68-3.26-1.12-4.42-.07s-.91,2.95-.34,4.42a16.63,16.63,0,0,0,15.28,10.31" style="fill:#455a64"></path><path d="M231.08,352.83a5.69,5.69,0,0,1,.9.39,10.94,10.94,0,0,1,1,.55,13.09,13.09,0,0,1,1.3.81,17.26,17.26,0,0,1,1.48,1.11,20,20,0,0,1,1.57,1.43,21.83,21.83,0,0,1,3,3.84,21.51,21.51,0,0,1,2,4.46,18.19,18.19,0,0,1,.5,2.07,16.94,16.94,0,0,1,.25,1.83,14.14,14.14,0,0,1,.07,1.52,10,10,0,0,1,0,1.15,6.19,6.19,0,0,1-.11,1c-.08,0,.06-1.4-.19-3.62a16.87,16.87,0,0,0-.29-1.81,20.08,20.08,0,0,0-.52-2,20.43,20.43,0,0,0-4.88-8.16,20.09,20.09,0,0,0-1.53-1.44c-.49-.44-1-.8-1.43-1.13C232.32,353.48,231,352.9,231.08,352.83Z" style="fill:#263238"></path><path d="M51.1,394.23a9.76,9.76,0,0,1,5,5.72,17.35,17.35,0,0,1,.67,7.75c-.57,5-3.43,10.11-6.5,14.13-4.24-3.7-5.21-10.15-5.5-13.45-.46-5.22,1.88-14.93,6.28-14.15" style="fill:#FF725E"></path><path d="M55.24,430.13a8.32,8.32,0,0,1,2.68-7.91,11.08,11.08,0,0,1,8.15-2.54,4.62,4.62,0,0,1,3.57,1.6,3.58,3.58,0,0,1,.06,3.61A7.22,7.22,0,0,1,67,427.51c-3.67,2.31-7.64,3.86-11.79,2.62" style="fill:#FF725E"></path><path d="M49.81,445.55a5.14,5.14,0,0,1,.15-1c.13-.72.3-1.66.51-2.79a29.3,29.3,0,0,1,2.88-8.92,17.81,17.81,0,0,1,6.41-6.8,11.88,11.88,0,0,1,2.61-1.16,6.28,6.28,0,0,1,.75-.19.76.76,0,0,1,.27,0A16.63,16.63,0,0,0,53.67,433a31.64,31.64,0,0,0-3,8.79c-.25,1.17-.46,2.12-.62,2.77A6.38,6.38,0,0,1,49.81,445.55Z" style="fill:#263238"></path><path d="M50,401.78a2.39,2.39,0,0,1,.05.45c0,.34,0,.77.08,1.3.06,1.13.12,2.76.19,4.77.13,4,.23,9.6.2,15.75s-.17,11.73-.34,15.75c-.08,2-.16,3.65-.23,4.77,0,.53-.07,1-.09,1.3a1.4,1.4,0,0,1-.06.45,3.26,3.26,0,0,1,0-.46c0-.33,0-.76,0-1.29,0-1.18.07-2.79.12-4.77.1-4,.21-9.6.24-15.75s0-11.71-.1-15.74c0-2-.06-3.6-.08-4.78,0-.53,0-1,0-1.29A1.84,1.84,0,0,1,50,401.78Z" style="fill:#263238"></path><path d="M47.91,433.19a19.42,19.42,0,0,0-10.62-14.25c-1.41-.68-3.26-1.12-4.43-.07s-.9,2.95-.33,4.41A16.6,16.6,0,0,0,47.81,433.6" style="fill:#FF725E"></path><path d="M38,423.71a5.69,5.69,0,0,1,.9.39,10.58,10.58,0,0,1,1,.54c.38.24.84.47,1.29.81a16.49,16.49,0,0,1,1.48,1.12A18.4,18.4,0,0,1,44.24,428a21.83,21.83,0,0,1,3,3.84,19.5,19.5,0,0,1,2.47,6.52A17.1,17.1,0,0,1,50,440.2a14,14,0,0,1,.07,1.52,10,10,0,0,1,0,1.15,6.19,6.19,0,0,1-.11,1c-.09,0,.06-1.4-.19-3.63a17.12,17.12,0,0,0-.29-1.8,20.4,20.4,0,0,0-.53-2,21.29,21.29,0,0,0-2-4.36,22,22,0,0,0-2.92-3.8,19.81,19.81,0,0,0-1.52-1.43A18,18,0,0,0,41,425.67C39.21,424.36,37.94,423.78,38,423.71Z" style="fill:#263238"></path><path d="M446.58,396.06a9.79,9.79,0,0,1,5.05,5.72,17.35,17.35,0,0,1,.67,7.75c-.57,5-3.43,10.11-6.51,14.12-4.23-3.69-5.21-10.14-5.5-13.44-.45-5.22,1.89-14.93,6.29-14.15" style="fill:#FF725E"></path><path d="M450.71,432a8.33,8.33,0,0,1,2.69-7.9,11,11,0,0,1,8.14-2.54,4.64,4.64,0,0,1,3.58,1.6,3.56,3.56,0,0,1,.05,3.61,7.19,7.19,0,0,1-2.66,2.62c-3.67,2.31-7.65,3.86-11.8,2.61" style="fill:#FF725E"></path><path d="M445.28,447.37a8.26,8.26,0,0,1,.15-1c.14-.72.31-1.66.52-2.79a29,29,0,0,1,2.88-8.92,17.91,17.91,0,0,1,6.4-6.81,12.7,12.7,0,0,1,2.61-1.15,6.28,6.28,0,0,1,.75-.19.8.8,0,0,1,.27,0,18.64,18.64,0,0,0-3.49,1.61,18.29,18.29,0,0,0-6.22,6.76,31.21,31.21,0,0,0-2.95,8.79c-.26,1.17-.46,2.12-.63,2.77A4.72,4.72,0,0,1,445.28,447.37Z" style="fill:#263238"></path><path d="M445.44,403.61a1.66,1.66,0,0,1,.05.45c0,.34.05.77.08,1.3.06,1.12.13,2.75.19,4.77.13,4,.24,9.6.21,15.75s-.18,11.72-.34,15.75c-.09,2-.17,3.65-.24,4.77,0,.53-.06,1-.08,1.3a2.87,2.87,0,0,1-.06.45,2.35,2.35,0,0,1,0-.46c0-.33,0-.76,0-1.29,0-1.18.07-2.8.12-4.78.1-4,.21-9.59.23-15.74s0-11.71-.1-15.74c0-2-.05-3.6-.07-4.78,0-.53,0-1,0-1.29A2.35,2.35,0,0,1,445.44,403.61Z" style="fill:#263238"></path><path d="M443.39,435a19.47,19.47,0,0,0-10.62-14.25c-1.42-.68-3.27-1.12-4.43-.07s-.9,2.95-.33,4.41a16.61,16.61,0,0,0,15.28,10.32" style="fill:#FF725E"></path><path d="M433.45,425.54a5.69,5.69,0,0,1,.9.39,9.54,9.54,0,0,1,1,.54c.38.24.84.47,1.29.81a18,18,0,0,1,1.48,1.12,17,17,0,0,1,1.57,1.43,19.93,19.93,0,0,1,5,8.29,16.7,16.7,0,0,1,.5,2.07,16.91,16.91,0,0,1,.26,1.84c.07.56.05,1.07.07,1.52a8,8,0,0,1,0,1.15,4.17,4.17,0,0,1-.11,1c-.08,0,.06-1.4-.18-3.63a17.29,17.29,0,0,0-.3-1.8,17.85,17.85,0,0,0-.52-2,21.84,21.84,0,0,0-2-4.36,22.5,22.5,0,0,0-2.92-3.8,19.88,19.88,0,0,0-1.53-1.43,16.55,16.55,0,0,0-1.43-1.14C434.69,426.19,433.42,425.61,433.45,425.54Z" style="fill:#263238"></path></g><g id="freepik--Chickens--inject-293"><path d="M109.58,364.1c0,1.52,7.62,35.92,11.29,41s24.07,16.64,22,12.68-12.82-9.95-12.82-9.95,17.22,8.87,19.8,6-16.53-7.56-16.53-7.56,18.48,1.25,12.22-1-15.4-1.65-15.4-1.65l-2.66-.74-2.23-.67-7.76-36.85Z" style="fill:#ff9a6c"></path><path d="M143.76,363.36c.05,1.52,7.61,35.92,11.29,41.05s24.06,16.64,22,12.68-12.81-10-12.81-10,17.21,8.88,19.8,6-16.53-7.56-16.53-7.56,18.48,1.26,12.22-1-15.4-1.64-15.4-1.64l-2.66-.74-2.23-.67-7.76-36.85Z" style="fill:#ff9a6c"></path><path d="M173.23,166.23h0c-13.08-9.77-34.58-4.72-48.39,4s-22.56,24-26.28,39.85c-2.35,10-2.94,20.58-7.16,30-5.35,11.91-15.9,20.6-23.11,31.48-11.62,17.53-13.81,40.85-6,60.36s25.4,34.75,45.73,40.11c19.5,5.15,40.4,1.5,59.26-5.65,15.14-5.73,29.82-14,39.72-26.85,8.17-10.56,12.61-23.57,15.13-36.68C231.86,252.47,214.52,194,173.23,166.23Z" style="fill:#FF725E"></path><path d="M63.88,298.93q1.41,2.2,2.8,4.41a106.47,106.47,0,0,0-10.17-37.41c-2.56-5.33-7.22-11.24-13-10-4,.89-6.48,5.16-6.68,9.24s1.37,8,2.91,11.8c-2.75-1.63-5.58-3.3-8.74-3.76s-6.76.57-8.41,3.3c-2.25,3.72,0,8.58,2.95,11.76s6.76,5.84,8.35,9.88c-5.45-2.14-12.74-3.82-16.24.88-1.9,2.54-1.74,6.2-.33,9.05s3.87,5,6.41,6.93A64.29,64.29,0,0,0,72.22,326.9Z" style="fill:#FF725E"></path><g style="opacity:0.30000000000000004"><path d="M142.7,281.72,99.42,268.67a139.61,139.61,0,0,0-20.25,35.05c-2,4.92-3.17,11.56,1.14,14.63s9.89,0,14.09-3c-1.45,2.62-2.92,5.31-3.31,8.28s.54,6.3,3,7.94c3.65,2.38,8.58.2,11.88-2.65,5.51-4.76,10.71-18.57,10.71-18.57s-.11,6.16,2.61,7.33,6,.26,8.33-1.57,3.91-4.43,5.4-7C137.94,300.65,142.37,291.5,142.7,281.72Z"></path></g><path d="M131.74,197.5a8.66,8.66,0,1,1-7.13-10A8.66,8.66,0,0,1,131.74,197.5Z" style="fill:#263238"></path><g style="opacity:0.30000000000000004"><path d="M135.08,207.57v0a3.52,3.52,0,0,0-4.45-2.4c-5.58,1.56-11,5.17-12.52,10.63-.47,1.69-.62,3.69.51,5,1.37,1.62,3.93,1.5,5.94.82a16.38,16.38,0,0,0,10.1-10A7.51,7.51,0,0,0,135.08,207.57Z" style="fill:#fff"></path></g><path d="M149.54,180.3c4.05-7,9.71-10.43,16.69-14.42,3-1.7,6.59-3.08,9.72-1.69s4.64,5.31,5.34,8.82a58.8,58.8,0,0,1,.84,17.41c-.3,3-1,6.34-3.49,8.12a11.94,11.94,0,0,1-4.8,1.69l-11.68,2.28c-4.19.83-8.88,1.55-12.43-.82-3.26-2.18-4.54-6.49-4.15-10.4s2.18-7.5,4-11" style="fill:#ff9a6c"></path><path d="M152.49,195.68a9,9,0,0,1,.42-1.54c.14-.5.33-1.1.59-1.78s.53-1.47.9-2.31a56.8,56.8,0,0,1,2.82-5.82,64.23,64.23,0,0,1,4.33-6.63,63.56,63.56,0,0,1,5.19-6,56.22,56.22,0,0,1,4.82-4.3c.71-.59,1.39-1.07,2-1.5s1.11-.79,1.54-1.06a9.34,9.34,0,0,1,1.37-.82,9.33,9.33,0,0,1-1.25,1c-.42.3-.92.67-1.49,1.13s-1.23.95-1.92,1.55c-1.41,1.17-3,2.64-4.71,4.36a62,62,0,0,0-9.44,12.51,63.25,63.25,0,0,0-2.9,5.72c-.39.83-.68,1.61-1,2.28s-.51,1.25-.68,1.73A10.22,10.22,0,0,1,152.49,195.68Z" style="fill:#263238"></path><g style="opacity:0.30000000000000004"><path d="M62.72,282c-1.12-3.65-2.57-7.75-3.43-9.78a47,47,0,0,0-2.11,37c.83,2.18,2.36,4.64,4.69,4.55A60.91,60.91,0,0,1,62.72,282Z"></path></g><path d="M100.24,263.67A139.22,139.22,0,0,0,80,298.72c-2,4.92-3.17,11.55,1.14,14.63s9.89,0,14.09-3c-1.45,2.61-2.92,5.31-3.31,8.27s.54,6.3,3,7.94c3.65,2.39,8.58.21,11.88-2.65,5.5-4.76,10.7-18.56,10.7-18.56s-.1,6.15,2.62,7.33,6,.25,8.33-1.57,3.91-4.43,5.39-7c4.89-8.47,9.32-17.62,9.65-27.4" style="fill:#FF725E"></path><path d="M143.53,276.72a29,29,0,0,1-.3,4.06,46.5,46.5,0,0,1-3,11,99.58,99.58,0,0,1-8,15.53,17.64,17.64,0,0,1-3.46,3.91,10,10,0,0,1-5,2.18,7.1,7.1,0,0,1-2.89-.23c-.24-.06-.47-.17-.7-.25a3.22,3.22,0,0,1-.66-.42,3.83,3.83,0,0,1-1-1.21,9.34,9.34,0,0,1-.91-2.87,19.21,19.21,0,0,1-.26-3l.47.09a76.51,76.51,0,0,1-7.51,14.89,18.15,18.15,0,0,1-6.47,6,12.26,12.26,0,0,1-4.33,1.46,8.82,8.82,0,0,1-2.35-.08,6.86,6.86,0,0,1-2.2-.88,7,7,0,0,1-2.83-3.73,10.15,10.15,0,0,1-.41-4.6c.44-3.07,1.94-5.74,3.34-8.28l.37.34a27.3,27.3,0,0,1-6.69,3.61,11.09,11.09,0,0,1-3.69.63,6.88,6.88,0,0,1-3.55-1A6.64,6.64,0,0,1,79,311.2a8.61,8.61,0,0,1-.94-3.4,18.82,18.82,0,0,1,.89-6.65,59.12,59.12,0,0,1,2.28-5.89c.8-1.88,1.64-3.67,2.46-5.39,1.65-3.43,3.32-6.54,4.94-9.32A136.43,136.43,0,0,1,96.87,268c1.06-1.42,1.89-2.5,2.48-3.21l.66-.82a2.16,2.16,0,0,1,.23-.26,2,2,0,0,1-.2.29l-.62.84c-.56.74-1.37,1.84-2.4,3.26a146.75,146.75,0,0,0-8.14,12.66c-1.59,2.78-3.24,5.89-4.87,9.32-.81,1.72-1.63,3.51-2.42,5.38a59.8,59.8,0,0,0-2.24,5.86,18.24,18.24,0,0,0-.85,6.48,8.29,8.29,0,0,0,.89,3.22,6.27,6.27,0,0,0,2.31,2.43,6.43,6.43,0,0,0,3.31.91,10.49,10.49,0,0,0,3.52-.62,26.11,26.11,0,0,0,6.55-3.55.26.26,0,0,1,.36.06.26.26,0,0,1,0,.27c-1.39,2.53-2.85,5.16-3.26,8.1a9.36,9.36,0,0,0,.39,4.36,6.42,6.42,0,0,0,2.61,3.46,6.21,6.21,0,0,0,2,.81,8,8,0,0,0,2.19.07,11.86,11.86,0,0,0,4.15-1.4,17.59,17.59,0,0,0,6.29-5.85,76.49,76.49,0,0,0,7.48-14.76.24.24,0,0,1,.31-.13.22.22,0,0,1,.15.22,18.29,18.29,0,0,0,.25,3,8.88,8.88,0,0,0,.85,2.73,3,3,0,0,0,2,1.66,6.73,6.73,0,0,0,2.71.23,9.56,9.56,0,0,0,4.84-2.08,17.09,17.09,0,0,0,3.38-3.8A100.34,100.34,0,0,0,140,291.65a48.77,48.77,0,0,0,3.12-10.89c.19-1.31.3-2.32.34-3,0-.33.05-.58.07-.78A1.11,1.11,0,0,1,143.53,276.72Z" style="fill:#263238"></path><path d="M63.33,278.73a9.42,9.42,0,0,1-.45,1.46c-.17.47-.37,1-.56,1.71s-.46,1.43-.66,2.29a54.73,54.73,0,0,0-1.27,6,54,54,0,0,0-.16,15.09,55.84,55.84,0,0,0,1.14,6.07c.19.86.43,1.62.62,2.29s.36,1.26.52,1.72a9.57,9.57,0,0,1,.42,1.48,8.57,8.57,0,0,1-.61-1.41c-.19-.46-.4-1-.61-1.7s-.48-1.43-.7-2.29a49.46,49.46,0,0,1-1.26-6.1,51.08,51.08,0,0,1,.16-15.22,48.16,48.16,0,0,1,1.39-6.07c.23-.86.52-1.61.74-2.28s.45-1.23.65-1.69A8.42,8.42,0,0,1,63.33,278.73Z" style="fill:#263238"></path><g style="opacity:0.30000000000000004"><path d="M157.76,238.36c-5.24-17.45-2.22-36.18.84-54.15a148.42,148.42,0,0,0-5.82,75.57l.65,3.45c4.75-.82,7.59-6.07,7.63-10.88S159.15,243,157.76,238.36Z"></path></g><path d="M200,179c.06.17-1.83.69-3.76,2s-3.07,2.89-3.21,2.77a9.44,9.44,0,0,1,7-4.76Z" style="fill:#6f4439"></path><path d="M201.6,312.65s0,.14,0,.41a7.64,7.64,0,0,1-.26,1.14,13.53,13.53,0,0,1-1.85,3.92,15.71,15.71,0,0,1-4.63,4.5,15,15,0,0,1-7.54,2.37l.21-.11-.26.35a33.93,33.93,0,0,1-11,9.54,30.15,30.15,0,0,1-4,1.84c-.49.19-.88.3-1.14.38a1.77,1.77,0,0,1-.42.1,11.61,11.61,0,0,1,1.48-.67,38.41,38.41,0,0,0,3.93-2,35.39,35.39,0,0,0,10.75-9.53l.25-.34a.26.26,0,0,1,.21-.11,14.79,14.79,0,0,0,7.3-2.25,16.05,16.05,0,0,0,4.58-4.3A18.45,18.45,0,0,0,201.6,312.65Z" style="fill:#263238"></path><path d="M150.58,334.62c0-.1,1.17.28,3.08.48a19.17,19.17,0,0,0,3.35,0,21.61,21.61,0,0,0,4-.75,21.91,21.91,0,0,0,3.78-1.58,20.22,20.22,0,0,0,2.78-1.88c1.48-1.21,2.24-2.15,2.31-2.09s-.14.27-.48.7a12,12,0,0,1-1.59,1.67,17.13,17.13,0,0,1-2.78,2,19.61,19.61,0,0,1-3.87,1.67,19.15,19.15,0,0,1-4.15.72,16.77,16.77,0,0,1-3.43-.15,12.11,12.11,0,0,1-2.25-.53A2.56,2.56,0,0,1,150.58,334.62Z" style="fill:#263238"></path><path d="M258.69,234.47c-11.85-.87-21.77-9.47-28.8-19s-15.81-21-23.5-30.08-19.56-14.35-27.21-14.1l9.31,12.21c7.7,10.22,16.82,26.08,22.67,37.46s13.37,21.5,25.19,26.41c9.92,4.11,21.52,5.5,31.85,2.57,20.48-5.79,39.8-19.14,50.71-37.41C298.16,213.87,279.44,236,258.69,234.47Z" style="fill:#ae7461"></path><path d="M210.87,190.81c0,.15-2.51.71-5.33,2.15s-4.8,3.13-4.9,3a16.78,16.78,0,0,1,10.23-5.16Z" style="fill:#6f4439"></path><path d="M210.19,215.09a8.8,8.8,0,0,1,1.44-1.83,49.66,49.66,0,0,1,8.36-7.41,8.48,8.48,0,0,1,2-1.2,11.66,11.66,0,0,1-1.76,1.5c-1.11.88-2.64,2.12-4.26,3.56s-3,2.81-4.06,3.81A11.17,11.17,0,0,1,210.19,215.09Z" style="fill:#6f4439"></path><path d="M217.31,233a3,3,0,0,1,.25-.82,20.54,20.54,0,0,1,.95-2.11,28,28,0,0,1,4.4-6.22,27.65,27.65,0,0,1,5.93-4.81,20.17,20.17,0,0,1,2-1.09,3.06,3.06,0,0,1,.79-.3c0,.08-1,.63-2.64,1.7a32.91,32.91,0,0,0-5.74,4.85,33.51,33.51,0,0,0-4.46,6.05C217.87,231.93,217.39,233,217.31,233Z" style="fill:#6f4439"></path><path d="M231.36,245.54a12.73,12.73,0,0,1,.88-2.85,37,37,0,0,1,3.24-6.41,37.61,37.61,0,0,1,4.42-5.68,12.4,12.4,0,0,1,2.2-2,23.82,23.82,0,0,1-1.93,2.25,49.45,49.45,0,0,0-4.25,5.71,48.76,48.76,0,0,0-3.34,6.28A24.49,24.49,0,0,1,231.36,245.54Z" style="fill:#6f4439"></path><path d="M252.33,250.94a9.83,9.83,0,0,1,0-2.55,30.58,30.58,0,0,1,3.23-11.78,9.69,9.69,0,0,1,1.33-2.17,17.42,17.42,0,0,1-1,2.32,42.49,42.49,0,0,0-2,5.71,40.36,40.36,0,0,0-1.15,6A18.47,18.47,0,0,1,252.33,250.94Z" style="fill:#6f4439"></path><path d="M274.42,248.39a9.27,9.27,0,0,1-1-2.11,45.11,45.11,0,0,1-1.82-5.39,48,48,0,0,1-1.14-5.56,9,9,0,0,1-.16-2.35,13.47,13.47,0,0,1,.53,2.28c.28,1.42.7,3.37,1.28,5.5s1.19,4,1.65,5.39A12.27,12.27,0,0,1,274.42,248.39Z" style="fill:#6f4439"></path><path d="M291.68,239.23a29.24,29.24,0,0,0-2.27-6.75,28.8,28.8,0,0,0-4.31-5.67,6,6,0,0,1,1.69,1.3,16.74,16.74,0,0,1,3.08,4.13,16.55,16.55,0,0,1,1.67,4.87A6.15,6.15,0,0,1,291.68,239.23Z" style="fill:#6f4439"></path><path d="M305.3,229.42a28.08,28.08,0,0,0-2-5.95,27.59,27.59,0,0,0-3.75-5,5,5,0,0,1,1.5,1.15,14.64,14.64,0,0,1,4.17,8A5,5,0,0,1,305.3,229.42Z" style="fill:#6f4439"></path><path d="M153,238c-.48-10,.16-20,.67-30s3.78-20.87,8.45-30.09c-5.18,1.74-10.94,8.61-13.46,12.73-6,9.84-9.05,20.8-10.27,31.78s-.69,22.05,0,33.06c.29,4.27.93,9.08,5,11.73,1.32.87,4.67,1.88,6.31,1.51,3-.68,4.49-4.82,4.77-6.21C156.21,254,153.37,246.64,153,238Z" style="fill:#ae7461"></path><path d="M154.5,251.58a63.66,63.66,0,0,0-8.28.13,63.22,63.22,0,0,0-8.09,1.72,8.43,8.43,0,0,1,2.25-1,28.24,28.24,0,0,1,5.78-1.26,28.85,28.85,0,0,1,5.92-.06A8.28,8.28,0,0,1,154.5,251.58Z" style="fill:#6f4439"></path><path d="M152.8,238.58a46.57,46.57,0,0,0-7.68-.26,43.92,43.92,0,0,0-7.52,1.53,7.56,7.56,0,0,1,2.08-.94,22.41,22.41,0,0,1,5.4-1.11,23,23,0,0,1,5.51.2A7.62,7.62,0,0,1,152.8,238.58Z" style="fill:#6f4439"></path><path d="M152.68,224c0,.16-3.27-.56-7.31-.55s-7.28.66-7.31.5a7.29,7.29,0,0,1,2.09-.57,28.21,28.21,0,0,1,5.22-.45,27.79,27.79,0,0,1,5.22.49A7.78,7.78,0,0,1,152.68,224Z" style="fill:#6f4439"></path><path d="M153.7,208.55a3,3,0,0,0-1.46-1.1,17.29,17.29,0,0,0-4.51-.8,40,40,0,0,0-6.53.38,16.55,16.55,0,0,1,11.19.08,2.76,2.76,0,0,1,1.15.92C153.72,208.33,153.73,208.54,153.7,208.55Z" style="fill:#6f4439"></path><path d="M155.2,193.85c-.08.14-1.6-.7-3.68-1.06s-3.79-.2-3.81-.36a6.85,6.85,0,0,1,3.91-.16A6.63,6.63,0,0,1,155.2,193.85Z" style="fill:#6f4439"></path><path d="M400.86,365c.19,1.5-1.91,36.67-4.73,42.31s-21.17,20.19-19.76,16,11.11-11.83,11.11-11.83-15.62,11.46-18.62,9,15.14-10,15.14-10-18.06,4.12-12.22.93,15-4,15-4l2.51-1.15,2.1-1,1.9-37.61Z" style="fill:#ff9a6c"></path><path d="M349.75,358.64c.19,1.5-1.9,36.66-4.73,42.3s-21.17,20.2-19.75,16,11.1-11.84,11.1-11.84-15.62,11.46-18.62,9S332.89,404,332.89,404s-18.05,4.13-12.22.94,14.95-4,14.95-4l2.51-1.14,2.1-1,1.91-37.61Z" style="fill:#ff9a6c"></path><path d="M430.81,271.74c-8.83-9.62-20.6-16.55-27.75-27.48-5.63-8.62-7.87-18.95-11.76-28.48-6.16-15.12-17.19-28.81-32.19-35.25l-.45-.19c-21-8.83-45.24-2-59.07,16-26.8,34.94-31.38,87.47-15.87,130.31,4.54,12.55,11.87,19.66,21.59,28.81,11.78,11.1,32.74,18,48.59,21.26,19.74,4.12,30.89,1.59,49.34-6.53,19.25-8.48,38.2-19.32,42.9-39.82S445,287.23,430.81,271.74Z" style="fill:#FF725E"></path><path d="M483.68,291c-4.19-4.09-11.13-1.29-16.18,1.67.94-4.24,4.28-7.46,6.7-11.06s3.89-8.75,1.09-12.07c-2.06-2.44-5.78-2.9-8.83-1.95s-5.59,3-8,5.08c.93-4,1.86-8.11,1-12.11s-4-7.83-8-8.08c-5.89-.36-9.58,6.2-11.28,11.86a106.47,106.47,0,0,0-4.19,38.55l2.07-4.8-3.86,28.93a64.28,64.28,0,0,0,46-19.28,20.58,20.58,0,0,0,5.25-7.85C486.37,296.89,486,293.25,483.68,291Z" style="fill:#FF725E"></path><path d="M319.51,217.75A8.66,8.66,0,1,0,318,205.6,8.66,8.66,0,0,0,319.51,217.75Z" style="fill:#263238"></path><g style="opacity:0.30000000000000004"><path d="M323.92,227.4l0,0a3.53,3.53,0,0,1,1.63-4.79c5.14-2.65,11.56-3.69,16.4-.73,1.5.91,3,2.27,3.05,4,.11,2.12-1.85,3.77-3.79,4.64a16.34,16.34,0,0,1-14.2-.44A7.65,7.65,0,0,1,323.92,227.4Z" style="fill:#fff"></path></g><g style="opacity:0.30000000000000004"><path d="M284,230l-1.88.37a17,17,0,0,0,2.59,5,5.8,5.8,0,0,0,4.94,2.28c1.81-.22,3.26-1.54,4.58-2.79l12-11.4C299.27,227,291.8,230.52,284,230Z"></path></g><path d="M308.3,218a21.2,21.2,0,0,0-31.84-6.06,7.59,7.59,0,0,0-2.94,4.13,7.69,7.69,0,0,0,1,4.8,22.66,22.66,0,0,0,11.79,11l1.12.23c7.58-1,14.56-3.66,20.12-8.9a4.73,4.73,0,0,0,1.56-2.3A4.43,4.43,0,0,0,308.3,218Z" style="fill:#ff9a6c"></path><path d="M273.52,216.06a7.59,7.59,0,0,1,1.31-.54c.45-.11,1-.21,1.64-.34s1.39-.15,2.21-.15a56.1,56.1,0,0,1,12.64,1.71c4.85,1.11,9.18,2.39,12.3,3.31l3.69,1.12a7,7,0,0,1,1.33.48,8.2,8.2,0,0,1-1.38-.28c-.89-.22-2.17-.55-3.74-1-3.15-.83-7.48-2-12.32-3.15a62.63,62.63,0,0,0-12.51-1.85c-.81,0-1.54,0-2.18.07l-1.63.24A6.46,6.46,0,0,1,273.52,216.06Z" style="fill:#263238"></path><g style="opacity:0.30000000000000004"><path d="M341.77,281.45A79.25,79.25,0,0,0,343.82,309c2,7.85,5.37,15.61,11.32,21.1s14.88,8.24,22.41,5.28,12.31-12.51,8.7-19.75a17.22,17.22,0,0,0,14.76,13,18.54,18.54,0,0,0,17.54-9.26,20.1,20.1,0,0,0-.52-20c3.81,2.54,9.34-1.23,9.94-5.77s-2.14-8.86-5.34-12.14c-7.71-7.91-18.31-12.26-28.77-15.81"></path></g><path d="M338.09,277.78a79.53,79.53,0,0,0,2.06,27.57c2,7.84,5.36,15.61,11.32,21.1s14.88,8.23,22.41,5.28,12.31-12.51,8.69-19.76a17.22,17.22,0,0,0,14.77,13,18.54,18.54,0,0,0,17.54-9.25,20.12,20.12,0,0,0-.52-20c3.8,2.54,9.34-1.23,9.94-5.77s-2.15-8.86-5.34-12.14c-7.72-7.91-18.31-12.26-28.78-15.81" style="fill:#FF725E"></path><path d="M390.18,262a1.28,1.28,0,0,1,.28.07l.79.26c.7.22,1.74.58,3.08,1a99.74,99.74,0,0,1,11.35,4.78,56.2,56.2,0,0,1,7.51,4.52,40.73,40.73,0,0,1,7.63,6.94,18.88,18.88,0,0,1,2.94,4.9,10.59,10.59,0,0,1,.65,6,8.36,8.36,0,0,1-3.71,5.12,7.08,7.08,0,0,1-3.15,1.1,5.16,5.16,0,0,1-3.32-.83l.32-.31a20.75,20.75,0,0,1,3,11.4,18.88,18.88,0,0,1-4.44,11.7,19.11,19.11,0,0,1-11.47,6.41,16.63,16.63,0,0,1-6.87-.36,17.9,17.9,0,0,1-6.25-3.15,17,17,0,0,1-6.17-9.53.26.26,0,0,1,.49-.17,13.46,13.46,0,0,1,.38,10.34,16.86,16.86,0,0,1-6.09,8,15.25,15.25,0,0,1-4.46,2.17,19.2,19.2,0,0,1-4.79.75,22.3,22.3,0,0,1-9.12-1.8,25.64,25.64,0,0,1-7.43-4.77,32.25,32.25,0,0,1-5.27-6.41,49.27,49.27,0,0,1-5.74-13.62,78,78,0,0,1-2.69-21.06,59.53,59.53,0,0,1,.49-7.72s0,.17,0,.5-.06.85-.1,1.49c-.08,1.3-.18,3.24-.18,5.73a80.17,80.17,0,0,0,2.83,21A49.81,49.81,0,0,0,346.38,320a31.78,31.78,0,0,0,5.22,6.31,25.42,25.42,0,0,0,7.31,4.66,22,22,0,0,0,8.93,1.75,16.23,16.23,0,0,0,9-2.84,16.43,16.43,0,0,0,5.9-7.81,12.94,12.94,0,0,0-.37-9.94l.49-.17a16.43,16.43,0,0,0,6,9.23,17.13,17.13,0,0,0,6.05,3.06,16.48,16.48,0,0,0,6.66.35,18.69,18.69,0,0,0,11.17-6.23A18.42,18.42,0,0,0,417,307a20.39,20.39,0,0,0-2.88-11.15.23.23,0,0,1,.32-.31,4.73,4.73,0,0,0,3,.76,6.65,6.65,0,0,0,3-1,7.91,7.91,0,0,0,3.52-4.83,10.2,10.2,0,0,0-.61-5.77,18.45,18.45,0,0,0-2.86-4.8A40.87,40.87,0,0,0,413,272.9a57.55,57.55,0,0,0-7.45-4.54,104.27,104.27,0,0,0-11.27-4.89l-3-1.11-.78-.29Z" style="fill:#263238"></path><path d="M377.36,188.85a9.41,9.41,0,0,0-3.4-3.29,21.6,21.6,0,0,0-10.39-3.23c2.06-.37,4.21-.79,5.8-2.14s2.33-3.94,1-5.54c-1.07-1.28-3-1.44-4.64-1.45-8.09-.06-19.74-1-25.87,3.33l28,16.32a14.06,14.06,0,0,0,4.79,2.19,4.72,4.72,0,0,0,4.73-1.64A4.49,4.49,0,0,0,377.36,188.85Z" style="fill:#FF725E"></path><path d="M447.93,312.75a7.4,7.4,0,0,1-.11-1.52c0-.49,0-1.09-.09-1.78s-.08-1.49-.2-2.36a55.74,55.74,0,0,0-1-6.07,54.82,54.82,0,0,0-5.15-14.09,55.89,55.89,0,0,0-3.17-5.26c-.47-.74-1-1.36-1.37-1.93s-.77-1-1.08-1.42a8.09,8.09,0,0,1-.9-1.24,8.73,8.73,0,0,1,1.06,1.11c.33.36.73.82,1.15,1.37s.94,1.17,1.44,1.9a50.08,50.08,0,0,1,3.3,5.24,56.64,56.64,0,0,1,3.12,6.92,57.6,57.6,0,0,1,2.07,7.3,50.39,50.39,0,0,1,.86,6.14c.09.87.09,1.67.12,2.37s0,1.3,0,1.8A10.1,10.1,0,0,1,447.93,312.75Z" style="fill:#263238"></path><g style="opacity:0.30000000000000004"><path d="M449.67,288.74A33,33,0,0,0,438,271.12l-1.32,8.25c7.11,8,9.93,18.84,11.49,30.46A33,33,0,0,0,449.67,288.74Z"></path></g><path d="M355.1,182.53c0-.05.77,0,2.16.06a27.58,27.58,0,0,0,5.85-.55,26.11,26.11,0,0,0,3.89-1.11,7.6,7.6,0,0,0,3.74-2.45,2.55,2.55,0,0,0,.42-2.2,3.24,3.24,0,0,0-1.54-1.83c-1.5-.87-3.42-.72-5.31-.75l-10.74-.08a31.36,31.36,0,0,0-8.65.8,13.81,13.81,0,0,0-5.2,2.6c-1.06.89-1.5,1.53-1.54,1.5a2.08,2.08,0,0,1,.3-.47,9.68,9.68,0,0,1,1.11-1.19,13.35,13.35,0,0,1,5.23-2.8,31.18,31.18,0,0,1,8.75-.92l10.74,0c1.87,0,3.87-.15,5.57.83a3.71,3.71,0,0,1,1.76,2.13,3,3,0,0,1-.5,2.61,8.07,8.07,0,0,1-4,2.59,26.58,26.58,0,0,1-4,1.07,25.13,25.13,0,0,1-5.92.38c-.7,0-1.24-.1-1.61-.15A3.72,3.72,0,0,1,355.1,182.53Z" style="fill:#263238"></path><path d="M339.75,358.67a1.7,1.7,0,0,1-.45-.18c-.28-.14-.7-.33-1.22-.62a40.08,40.08,0,0,1-4.28-2.69A43.68,43.68,0,0,1,322.36,343l.48-.12a2.59,2.59,0,0,1-.2.76,3.8,3.8,0,0,1-4.44,1.94,9.38,9.38,0,0,1-4-2.39,16.55,16.55,0,0,1-4.28-6.47,16,16,0,0,1-1-5.14,10.5,10.5,0,0,1,.06-1.42,1.59,1.59,0,0,1,.07-.49c.05,0,0,.68.08,1.9a17.24,17.24,0,0,0,1.13,5,16.61,16.61,0,0,0,4.27,6.25,8.91,8.91,0,0,0,3.77,2.24,3.66,3.66,0,0,0,2.22-.13,2.91,2.91,0,0,0,1.63-1.51,2.29,2.29,0,0,0,.16-.61h0a.27.27,0,0,1,.3-.22.26.26,0,0,1,.18.12A45.81,45.81,0,0,0,334,354.89a49.43,49.43,0,0,0,4.17,2.81A14.15,14.15,0,0,1,339.75,358.67Z" style="fill:#263238"></path><path d="M364.63,357.86s-.16.27-.58.63a6.53,6.53,0,0,1-2,1.17,10.4,10.4,0,0,1-7.58-.36,20.66,20.66,0,0,1-6.19-4.48,15.44,15.44,0,0,1-2.1-2.36,23,23,0,0,1,2.35,2.09,23.06,23.06,0,0,0,6.14,4.27,10.62,10.62,0,0,0,7.26.49A11.29,11.29,0,0,0,364.63,357.86Z" style="fill:#263238"></path><path d="M298.3,217.69l-3.09.28c6.67,10,5.63,23.63,4.25,34.63a78.47,78.47,0,0,0-.36,16.92c.27,3,.83,6,2.53,8.48s4.55,4.05,7.38,3.51c4.42-.85,6.26-6.1,6.9-10.55,2-13.79,1.14-30.3-3.56-44.18A13.55,13.55,0,0,0,298.3,217.69Z" style="fill:#ae7461"></path><path d="M313.84,230.72a41.5,41.5,0,0,0-7-.75,42.65,42.65,0,0,0-7,1,6.21,6.21,0,0,1,1.95-.76,20,20,0,0,1,5-.73,19.74,19.74,0,0,1,5,.57A6.12,6.12,0,0,1,313.84,230.72Z" style="fill:#6f4439"></path><path d="M316.59,244.37a31.88,31.88,0,0,0-16.44-.94,8.2,8.2,0,0,1,2.36-.71,23.55,23.55,0,0,1,11.82.67A7.86,7.86,0,0,1,316.59,244.37Z" style="fill:#6f4439"></path><path d="M317.21,262.92a19.15,19.15,0,0,1-2.67-.62,46.07,46.07,0,0,0-13-1.23,21.35,21.35,0,0,1-2.74.11,11,11,0,0,1,2.71-.47,34.6,34.6,0,0,1,6.64,0,34.19,34.19,0,0,1,6.52,1.25A11,11,0,0,1,317.21,262.92Z" style="fill:#6f4439"></path></g></svg>
